# xmcd
#
# Track frame offsets: 
#        150
#        19093
#        37991
#        56420
#        72462
#        88002
#        122948
#        139140
#        155433
#        170236
#        190722
#
# Disc length: 2773 seconds
#
# Revision: 3
# Processed by: cddbd v1.5.2PL0 Copyright (c) Steve Scherf et al.
# Submitted via: ExactAudioCopy v0.99pb5
#
DISCID=980ad30b
DTITLE=Chris Smither - Train Home
DYEAR=2003
DGENRE=Acoustic
TTITLE0=Train Home
TTITLE1=Outside In
TTITLE2=Confirmation
TTITLE3=Crocodile Man
TTITLE4=Lola
TTITLE5=Desolation Row
TTITLE6=Call Time
TTITLE7=Candy Man
TTITLE8=Never needed It More
TTITLE9=Let It Go
TTITLE10=Kind Woman
EXTD=YEAR: 2003
EXTT0=
EXTT1=
EXTT2=
EXTT3=
EXTT4=
EXTT5=
EXTT6=
EXTT7=
EXTT8=
EXTT9=
EXTT10=
PLAYORDER=
